 <svg  version="1.0" xmlns="http://www.w3.org/2000/svg"  width="64.000000pt" height="75.000000pt" viewBox="0 0 64.000000 75.000000"  preserveAspectRatio="xMidYMid meet">  <g transform="translate(0.000000,75.000000) scale(0.100000,-0.100000)" fill="#e93147" stroke="none"> <path d="M0 375 l0 -375 320 0 320 0 0 375 0 375 -320 0 -320 0 0 -375z m244 321 c31 -28 36 -40 36 -77 0 -64 -28 -110 -83 -138 -58 -29 -90 -23 -117 22 -26 42 -25 65 5 110 30 44 52 50 30 7 -33 -64 -5 -130 50 -116 90 23 105 153 23 197 -26 14 -71 -13 -100 -58 -22 -37 -23 -37 -27 -13 -2 19 7 34 39 62 56 50 95 51 144 4z m183 -27 c-5 -19 -4 -20 12 -5 10 9 21 13 24 9 12 -11 8 -23 -7 -23 -8 0 0 -14 20 -34 19 -19 34 -44 34 -57 0 -25 -2 -23 -43 32 -50 69 -114 58 -139 -22 -18 -61 14 -119 74 -134 54 -14 89 61 52 113 -18 26 -12 41 10 23 25 -21 47 -79 40 -106 -10 -39 -60 -76 -92 -69 -77 19 -122 73 -122 149 0 43 4 52 41 87 29 28 46 37 60 33 13 -4 19 -2 19 9 0 9 5 16 11 16 7 0 9 -9 6 -21z m-257 -38 c0 -5 -7 -14 -15 -21 -12 -10 -15 -10 -15 2 0 8 3 18 7 21 9 10 23 9 23 -2z m31 -34 c-16 -16 -26 0 -10 19 9 11 15 12 17 4 2 -6 -1 -17 -7 -23z m194 23 c-3 -5 -10 -10 -16 -10 -5 0 -9 5 -9 10 0 6 7 10 16 10 8 0 12 -4 9 -10z m35 -15 c0 -8 -4 -15 -10 -15 -5 0 -10 7 -10 15 0 8 5 15 10 15 6 0 10 -7 10 -15z m-289 -41 c8 -10 23 -14 41 -12 15 3 28 1 28 -3 0 -13 -30 -19 -53 -10 -25 10 -55 41 -39 41 5 0 15 -7 23 -16z m279 -9 c0 -8 -4 -15 -10 -15 -5 0 -10 7 -10 15 0 8 5 15 10 15 6 0 10 -7 10 -15z m-50 -11 c0 -8 -4 -12 -10 -9 -5 3 -10 10 -10 16 0 5 5 9 10 9 6 0 10 -7 10 -16z m63 -55 c-14 -15 -27 -19 -42 -14 -28 9 -27 23 2 18 14 -3 29 2 37 11 7 9 15 14 18 11 3 -3 -3 -15 -15 -26z m193 -11 c8 -12 -24 -40 -37 -32 -5 3 -9 14 -9 25 0 21 34 27 46 7z m-356 -122 c0 -8 -10 -22 -22 -31 -13 -10 -18 -19 -12 -21 6 -3 20 -11 30 -19 15 -12 16 -14 3 -15 -8 0 -21 6 -28 13 -11 10 -14 10 -18 0 -3 -7 -20 -13 -39 -13 -27 0 -37 5 -46 26 -11 23 -10 29 11 45 13 11 31 19 40 19 12 -1 9 -7 -11 -23 -36 -29 -35 -44 2 -49 27 -4 30 -2 36 31 4 20 9 39 11 44 8 13 43 7 43 -7z m220 -1 c0 -8 -9 -20 -20 -27 -26 -17 -25 -22 6 -37 15 -6 24 -14 21 -17 -3 -3 -16 0 -28 7 -17 9 -24 9 -27 0 -2 -6 -19 -11 -38 -11 -27 0 -37 5 -46 26 -11 23 -10 29 11 45 13 11 31 19 40 19 12 -1 9 -7 -11 -23 -36 -29 -35 -44 2 -49 27 -4 30 -2 36 31 4 20 9 39 11 44 8 13 43 7 43 -8z m-370 -3 c0 -5 -12 -14 -26 -21 -29 -13 -28 -34 2 -39 31 -6 41 -22 13 -22 -46 0 -63 38 -32 72 17 19 43 25 43 10z m220 0 c0 -5 -12 -14 -26 -21 -29 -13 -28 -34 2 -39 31 -6 41 -22 13 -22 -46 0 -63 38 -32 72 17 19 43 25 43 10z m-75 -159 c-6 -21 -9 -23 -12 -10 -3 9 -9 17 -14 17 -14 0 -11 28 4 33 20 8 30 -10 22 -40z m-56 5 c-1 -31 -1 -31 -8 -8 -5 14 -6 28 -4 33 9 15 13 6 12 -25z m93 2 c-9 -16 -21 -30 -26 -30 -4 0 -1 11 8 24 12 18 12 26 3 29 -6 3 -2 6 10 6 22 1 22 0 5 -29z m44 21 c-4 -5 0 -11 6 -14 10 -3 10 -8 -1 -21 -9 -10 -18 -13 -24 -7 -11 11 0 51 14 51 6 0 8 -4 5 -9z m-131 -107 c15 -15 17 -15 34 0 22 20 35 20 55 0 15 -14 17 -14 32 0 21 21 37 20 58 -3 21 -23 14 -57 -14 -66 -10 -3 -21 -12 -24 -20 -8 -21 -65 -20 -73 1 -5 15 -7 15 -15 0 -15 -26 -54 -18 -94 18 -37 34 -37 35 -20 60 19 30 38 33 61 10z"/> <path d="M235 349 c-11 -17 1 -21 15 -4 8 9 8 15 2 15 -6 0 -14 -5 -17 -11z"/> <path d="M455 349 c-11 -17 1 -21 15 -4 8 9 8 15 2 15 -6 0 -14 -5 -17 -11z"/> <path d="M245 221 c-3 -5 -1 -12 5 -16 5 -3 10 1 10 9 0 18 -6 21 -15 7z"/> <path d="M330 189 c0 -5 5 -7 10 -4 6 3 10 8 10 11 0 2 -4 4 -10 4 -5 0 -10 -5 -10 -11z"/> <path d="M173 113 c-18 -7 -16 -50 1 -56 8 -3 17 1 20 9 3 9 10 12 16 9 14 -9 13 18 -2 33 -13 13 -16 13 -35 5z"/> <path d="M250 100 c-18 -16 -19 -20 -7 -20 9 0 20 -7 25 -16 8 -15 10 -15 15 1 4 9 11 13 17 10 5 -3 10 1 10 9 0 8 -8 20 -19 25 -14 8 -24 6 -41 -9z"/> <path d="M346 107 c-13 -11 -13 -15 5 -37 20 -23 22 -24 34 -6 24 32 -7 67 -39 43z"/> <path d="M307 60 c-20 -24 -15 -40 13 -40 26 0 34 18 18 37 -11 14 -11 16 1 8 10 -5 12 -4 7 3 -10 17 -19 15 -39 -8z"/> <path d="M211 53 c-9 -10 -10 -18 -3 -25 16 -16 47 -5 48 18 1 24 -25 29 -45 7z"/> </g> </svg> 